<svg width="256" height="256" viewBox="0 0 256 256" xmlns="http://www.w3.org/2000/svg">
  <rect width="256" height="256" rx="28" fill="#ffffff" />
  <rect x="2" y="2" width="252" height="252" rx="26" fill="none" stroke="#d8ead8" stroke-width="2" />

  <g stroke="#39ff1455" stroke-width="1.5">
    <polygon points="128,68 188,128 128,188 68,128" fill="none" />
    <polygon points="128,98 158,128 128,158 98,128" fill="none" />
    <line x1="128" y1="128" x2="128" y2="68" />
    <line x1="128" y1="128" x2="188" y2="128" />
    <line x1="128" y1="128" x2="128" y2="188" />
    <line x1="128" y1="128" x2="68" y2="128" />
  </g>

  <polygon
    points="128,78 173,128 128,178 88,128"
    fill="#39ff1422"
    stroke="#1d9e0c"
    stroke-width="4"
  />

  <circle cx="128" cy="78" r="5" fill="#1d9e0c" />
  <circle cx="173" cy="128" r="5" fill="#ff8c00" />
  <circle cx="128" cy="178" r="5" fill="#1d9e0c" />
  <circle cx="88" cy="128" r="5" fill="#1d9e0c" />

  <text
    x="128"
    y="232"
    font-family="ui-monospace, SFMono-Regular, Menlo, monospace"
    font-size="22"
    font-weight="700"
    fill="#1d9e0c"
    text-anchor="middle"
  >&gt;_</text>
</svg>
